<?xml version="1.0" encoding="utf-8"?>
<!-- Generator: Adobe Illustrator 26.5.0, SVG Export Plug-In . SVG Version: 6.00 Build 0)  -->
<svg version="1.1" id="Calque_1" xmlns="http://www.w3.org/2000/svg" xmlns:xlink="http://www.w3.org/1999/xlink" x="0px" y="0px"
	 viewBox="0 0 64 64" style="enable-background:new 0 0 64 64;" xml:space="preserve">
<style type="text/css">
	.st0{fill:#0083FF;}
	.st1{fill:#0099FF;}
	.st2{fill:#007BFF;}
</style>
<path class="st0" d="M31.8,0.2l1.7,3.2C33.9,4,34.3,4.5,34.8,5c1.4,1.4,2.8,2.9,4,4.5c2.9,3.8,4.8,8,6.2,12.6
	c0.8,2.8,1.3,5.6,1.3,8.5c0.1,8.6-2.8,16.1-8.8,22.2c-1,1-2,1.9-3.1,2.7c-0.6,0-0.9-0.5-1.1-0.9c-0.5-0.8-0.7-1.6-0.9-2.5
	c-0.2-1-0.3-2.1-0.3-3.2v-0.5C32.1,48.4,31.6,0.4,31.8,0.2z"/>
<path class="st1" d="M31.8,0.1c-0.1-0.1-0.1,0-0.2,0c0,0.7-0.2,1.3-0.6,1.9c-0.4,0.6-1,1-1.5,1.5c-3.1,2.7-5.5,5.9-7.5,9.6
	C19.4,18,18,23.2,17.7,28.7c-0.2,2,0.6,9,1.3,11c1.7,5.4,4.8,9.9,8.8,13.8c1,0.9,2,1.8,3.1,2.7c0.3,0,0.3-0.3,0.4-0.5
	c0.1-0.4,0.2-0.9,0.3-1.4l0.7-5.2L31.8,0.1z"/>
<path class="st2" d="M33.5,57.7c0.1-0.8,0.5-1.5,0.9-2.1c-0.4-0.2-0.7-0.5-1-0.9c-0.2-0.3-0.4-0.8-0.5-1.2c-0.5-1.5-0.6-3-0.7-4.5
	v-0.9c-0.2,0.1-0.2,1.3-0.2,1.5c-0.1,1.6-0.3,3.2-0.6,4.7c-0.1,0.6-0.2,1.3-0.6,1.8c0,0.1,0,0.1,0,0.2c0.6,1.8,0.8,3.7,0.9,5.6v0.7
	c0,0.8,0,0.7,0.7,0.9c0.3,0.1,0.6,0.1,0.9,0.3c0.2,0,0.2-0.2,0.2-0.3l-0.1-1.2v-3.2C33.3,58.8,33.4,58.2,33.5,57.7L33.5,57.7z"/>
</svg>
