<?xml version="1.0" encoding="UTF-8"?><svg id="Calque_2" xmlns="http://www.w3.org/2000/svg" viewBox="0 0 275.99 26.21"><defs><style>.cls-1{fill:#fff;}.cls-2{fill:#438dcc;}</style></defs><g id="Calque_1-2"><g><path class="cls-1" d="M13.65,2.09c.38,0,.68,.11,.9,.33,.22,.22,.33,.5,.33,.84s-.11,.62-.33,.84-.52,.33-.9,.33H7.41v.12c.28,0,.56,.12,.84,.36,.28,.24,.42,.55,.42,.93v14.49c0,.4-.11,.72-.33,.96-.22,.24-.52,.36-.9,.36s-.68-.12-.9-.36c-.22-.24-.33-.56-.33-.96V4.43H1.23c-.38,0-.68-.11-.9-.33-.22-.22-.33-.5-.33-.84s.11-.62,.33-.84,.52-.33,.9-.33H13.65Z"/><path class="cls-1" d="M28.89,13.01c0,.66-.19,1.18-.55,1.56-.37,.38-.88,.57-1.52,.57h-10.17v.15c.42,0,.72,.26,.9,.78,.3,1.08,.88,1.94,1.73,2.58,.85,.64,1.89,.96,3.13,.96s2.41-.31,3.57-.93c.78-.38,1.35-.27,1.71,.33,.4,.64,.24,1.2-.48,1.68-1.18,.78-2.74,1.17-4.68,1.17-2.4,0-4.3-.72-5.71-2.16-1.41-1.44-2.12-3.28-2.12-5.52s.69-4.11,2.07-5.56c1.38-1.45,3.13-2.17,5.25-2.17,2,0,3.65,.6,4.94,1.8,1.29,1.2,1.93,2.79,1.93,4.77Zm-11.61-.03h9.27c0-1.28-.46-2.31-1.36-3.1-.91-.79-2.08-1.19-3.53-1.19-.92,0-1.84,.16-2.77,.48-.93,.32-1.62,.81-2.08,1.47l.12,.06c.3-.36,.66-.63,1.08-.82,.42-.19,.81-.27,1.17-.23-1.04,.78-1.67,1.89-1.89,3.33ZM22.71,.35c.6-.5,1.15-.47,1.65,.09,.48,.58,.41,1.13-.21,1.65l-2.64,2.19c-.6,.54-1.16,.52-1.68-.06-.48-.58-.4-1.13,.24-1.65L22.71,.35Z"/><path class="cls-1" d="M33.42,.59c.36,0,.65,.11,.87,.33,.22,.22,.33,.5,.33,.84v.03c0,.28-.13,.53-.4,.75s-.54,.33-.83,.33v.12h1.23V20.36c0,.4-.1,.72-.31,.94-.21,.23-.51,.35-.88,.35s-.68-.11-.89-.35c-.21-.23-.31-.54-.31-.94V1.88c0-.4,.1-.71,.31-.94s.5-.35,.89-.35Z"/><path class="cls-1" d="M52.26,13.01c0,.66-.19,1.18-.55,1.56-.37,.38-.88,.57-1.52,.57h-10.17v.15c.42,0,.72,.26,.9,.78,.3,1.08,.88,1.94,1.73,2.58,.85,.64,1.89,.96,3.13,.96s2.41-.31,3.57-.93c.78-.38,1.35-.27,1.71,.33,.4,.64,.24,1.2-.48,1.68-1.18,.78-2.74,1.17-4.68,1.17-2.4,0-4.3-.72-5.71-2.16-1.41-1.44-2.12-3.28-2.12-5.52s.69-4.11,2.07-5.56c1.38-1.45,3.13-2.17,5.25-2.17,2,0,3.65,.6,4.94,1.8,1.29,1.2,1.93,2.79,1.93,4.77Zm-11.61-.03h9.27c0-1.28-.46-2.31-1.36-3.1-.91-.79-2.08-1.19-3.53-1.19-.92,0-1.84,.16-2.77,.48-.93,.32-1.62,.81-2.08,1.47l.12,.06c.3-.36,.66-.63,1.08-.82,.42-.19,.81-.27,1.17-.23-1.04,.78-1.67,1.89-1.89,3.33ZM46.08,.35c.6-.5,1.15-.47,1.65,.09,.48,.58,.41,1.13-.21,1.65l-2.64,2.19c-.6,.54-1.16,.52-1.68-.06-.48-.58-.4-1.13,.24-1.65l2.64-2.22Z"/><path class="cls-1" d="M66.48,10.43c-1.08-1.14-2.53-1.71-4.35-1.71-1,0-1.97,.16-2.9,.48-.93,.32-1.63,.81-2.09,1.47l.12,.09c.28-.36,.63-.63,1.06-.82s.83-.27,1.22-.23c-1.42,1.06-2.13,2.54-2.13,4.44,0,1.54,.5,2.83,1.49,3.87,.99,1.04,2.24,1.56,3.76,1.56s2.84-.62,3.96-1.86c.52-.56,1.07-.57,1.65-.03,.6,.56,.63,1.13,.09,1.71-1.5,1.64-3.39,2.46-5.67,2.46s-4.09-.73-5.55-2.19c-1.46-1.46-2.19-3.3-2.19-5.52s.73-4.06,2.19-5.52c1.46-1.46,3.31-2.19,5.55-2.19s4.02,.77,5.52,2.31c.52,.48,.48,1.02-.12,1.62-.56,.56-1.1,.58-1.62,.06Z"/><path class="cls-1" d="M79.26,6.44c1.76,0,3.19,.49,4.29,1.47,1.1,.98,1.65,2.45,1.65,4.41v8.04c0,.4-.1,.72-.31,.94-.21,.23-.51,.35-.89,.35s-.67-.11-.88-.35c-.21-.23-.32-.54-.32-.94v-7.68c0-1.44-.33-2.46-1-3.06-.67-.6-1.62-.9-2.86-.9-1.56,0-2.87,.43-3.93,1.29-1.06,.86-1.67,1.99-1.83,3.39h.15c.18-1.02,.58-1.66,1.2-1.92-.06,.22-.09,.43-.09,.63v8.25c0,.4-.1,.72-.31,.94-.21,.23-.51,.35-.89,.35s-.67-.11-.88-.35c-.21-.23-.32-.54-.32-.94V1.88c0-.4,.11-.71,.32-.94s.5-.35,.88-.35,.67,.12,.89,.35c.21,.23,.31,.54,.31,.94v6.87h.18c.38-.66,.97-1.21,1.77-1.65s1.76-.66,2.88-.66Z"/><path class="cls-1" d="M96.39,6.44c2.02,0,3.72,.61,5.11,1.83,1.39,1.22,2.08,2.88,2.08,4.98v7.08c0,.4-.1,.72-.31,.96-.21,.24-.51,.36-.88,.36s-.68-.12-.9-.36c-.22-.24-.33-.56-.33-.96v-1.05h-.15c-.94,1.72-2.61,2.58-5.01,2.58-2.12,0-3.9-.72-5.33-2.17-1.43-1.45-2.15-3.23-2.15-5.35,0-2.3,.71-4.19,2.15-5.67,1.43-1.48,3.33-2.22,5.72-2.22Zm-.12,13.14c1.54,0,2.74-.48,3.6-1.46,.86-.97,1.29-2.33,1.29-4.06v-.48c0-1.56-.46-2.76-1.38-3.6s-2.28-1.26-4.08-1.26c-1,0-1.97,.16-2.9,.48-.93,.32-1.63,.81-2.09,1.47l.12,.09c.28-.36,.63-.63,1.06-.82s.83-.27,1.19-.23c-1.4,1-2.1,2.49-2.1,4.47,0,1.6,.48,2.9,1.44,3.9,.96,1,2.24,1.5,3.84,1.5Z"/><path class="cls-1" d="M115.77,6.74c.78,.18,1.09,.65,.93,1.41-.16,.74-.64,1.03-1.44,.87-.46-.18-.87-.27-1.23-.27-1.24,0-2.22,.57-2.94,1.69-.72,1.13-1.08,2.71-1.08,4.75v5.16c0,.4-.1,.72-.31,.94-.21,.23-.51,.35-.89,.35s-.67-.11-.88-.35c-.21-.23-.32-.54-.32-.94V7.94c0-.4,.11-.71,.32-.94s.5-.35,.88-.35,.67,.12,.89,.35c.21,.23,.31,.54,.31,.94v2.37l.12-.06c.14-1.2,.59-2.13,1.34-2.81,.75-.67,1.65-1,2.71-1,.4,0,.93,.1,1.59,.3Z"/><path class="cls-1" d="M125.49,6.44c2.14,0,3.89,.66,5.25,1.98s2.04,3.02,2.04,5.1v5.79c0,2.04-.73,3.7-2.17,4.98-1.45,1.28-3.35,1.92-5.69,1.92-1.62,0-2.89-.22-3.81-.66-.66-.28-.89-.75-.69-1.41,.22-.68,.69-.93,1.41-.75,1.32,.38,2.3,.57,2.94,.57,1.84,0,3.24-.46,4.2-1.37,.96-.91,1.44-2.13,1.44-3.67v-.75h-.18c-1.06,1.94-2.79,2.91-5.19,2.91-2.06,0-3.74-.69-5.04-2.07-1.3-1.38-1.95-3.15-1.95-5.31s.7-3.88,2.1-5.23,3.18-2.02,5.34-2.02Zm-.12,12.39c1.46,0,2.66-.48,3.61-1.43s1.43-2.09,1.43-3.44v-.12c0-1.52-.47-2.76-1.41-3.72-.94-.96-2.28-1.44-4.02-1.44-1,0-1.96,.16-2.88,.48-.92,.32-1.6,.81-2.04,1.47l.12,.09c.6-.78,1.35-1.13,2.25-1.05-1.28,.92-1.92,2.28-1.92,4.08,0,1.5,.42,2.72,1.26,3.66,.84,.94,2.04,1.41,3.6,1.41Z"/><path class="cls-1" d="M150.18,13.01c0,.66-.19,1.18-.55,1.56-.37,.38-.88,.57-1.52,.57h-10.17v.15c.42,0,.72,.26,.9,.78,.3,1.08,.88,1.94,1.73,2.58,.85,.64,1.89,.96,3.13,.96s2.41-.31,3.57-.93c.78-.38,1.35-.27,1.71,.33,.4,.64,.24,1.2-.48,1.68-1.18,.78-2.74,1.17-4.68,1.17-2.4,0-4.3-.72-5.71-2.16-1.41-1.44-2.12-3.28-2.12-5.52s.69-4.11,2.07-5.56c1.38-1.45,3.13-2.17,5.25-2.17,2,0,3.65,.6,4.94,1.8,1.29,1.2,1.93,2.79,1.93,4.77Zm-11.61-.03h9.27c0-1.28-.46-2.31-1.36-3.1-.91-.79-2.08-1.19-3.53-1.19-.92,0-1.84,.16-2.77,.48-.93,.32-1.62,.81-2.08,1.47l.12,.06c.3-.36,.66-.63,1.08-.82,.42-.19,.81-.27,1.17-.23-1.04,.78-1.67,1.89-1.89,3.33Z"/><path class="cls-1" d="M161.55,6.74c.78,.18,1.09,.65,.93,1.41-.16,.74-.64,1.03-1.44,.87-.46-.18-.87-.27-1.23-.27-1.24,0-2.22,.57-2.94,1.69-.72,1.13-1.08,2.71-1.08,4.75v5.16c0,.4-.1,.72-.31,.94-.21,.23-.51,.35-.89,.35s-.67-.11-.88-.35c-.21-.23-.32-.54-.32-.94V7.94c0-.4,.11-.71,.32-.94s.5-.35,.88-.35,.67,.12,.89,.35c.21,.23,.31,.54,.31,.94v2.37l.12-.06c.14-1.2,.59-2.13,1.34-2.81,.75-.67,1.65-1,2.71-1,.4,0,.93,.1,1.59,.3Z"/><path class="cls-1" d="M188.1,6.44c1.48,0,2.71,.44,3.71,1.32,.99,.88,1.48,2.05,1.48,3.51v9.09c0,.38-.11,.69-.33,.93-.22,.24-.51,.36-.87,.36-.38,0-.68-.11-.9-.35-.22-.23-.33-.54-.33-.94V11.57c0-.94-.28-1.66-.83-2.16-.55-.5-1.3-.75-2.26-.75-1.1,0-2.12,.37-3.08,1.11-.95,.74-1.5,1.84-1.63,3.3h.12c.22-1,.61-1.66,1.17-1.98-.02,.08-.03,.2-.03,.36v8.91c0,.4-.1,.72-.31,.94-.21,.23-.51,.35-.89,.35s-.68-.11-.9-.35c-.22-.23-.33-.54-.33-.94V11.57c0-.92-.29-1.63-.87-2.15-.58-.51-1.32-.77-2.22-.77-1.1,0-2.12,.37-3.07,1.11-.95,.74-1.5,1.84-1.64,3.3h.15c.1-.5,.27-.93,.51-1.29,.24-.36,.45-.59,.63-.69-.02,.1-.03,.25-.03,.45v8.82c0,.4-.1,.72-.31,.94-.21,.23-.51,.35-.89,.35s-.67-.11-.88-.35c-.21-.23-.32-.54-.32-.94V7.94c0-.4,.11-.71,.32-.94s.5-.35,.88-.35c.76,0,1.16,.39,1.2,1.17v.48h.15c.28-.42,.78-.83,1.52-1.25,.73-.41,1.5-.61,2.32-.61s1.55,.19,2.31,.56c.76,.37,1.35,.88,1.77,1.51,1.06-1.38,2.62-2.07,4.68-2.07Z"/><path class="cls-1" d="M204.33,21.86c-2.24,0-4.08-.73-5.54-2.19-1.45-1.46-2.17-3.3-2.17-5.52s.72-4.06,2.17-5.52c1.45-1.46,3.29-2.19,5.54-2.19s4.05,.73,5.5,2.19c1.45,1.46,2.17,3.3,2.17,5.52s-.73,4.06-2.17,5.52c-1.45,1.46-3.29,2.19-5.5,2.19Zm-3.78-3.81c.98,1.02,2.24,1.53,3.78,1.53s2.8-.51,3.78-1.53c.98-1.02,1.47-2.32,1.47-3.9s-.52-2.9-1.54-3.92c-1.03-1.01-2.45-1.52-4.25-1.52-1,0-1.96,.16-2.9,.48-.93,.32-1.62,.81-2.08,1.47l.12,.09c.28-.36,.63-.63,1.07-.82,.43-.19,.82-.27,1.18-.23-1.4,1.02-2.1,2.5-2.1,4.44,0,1.58,.49,2.88,1.47,3.9Z"/><path class="cls-1" d="M222.63,6.44c1.74,0,3.16,.49,4.26,1.47,1.1,.98,1.65,2.45,1.65,4.41v8.04c0,.4-.1,.72-.31,.94-.21,.23-.51,.35-.88,.35s-.68-.11-.89-.35c-.21-.23-.31-.54-.31-.94v-7.68c0-1.44-.33-2.46-1-3.06-.67-.6-1.63-.9-2.87-.9-1.56,0-2.87,.43-3.93,1.29-1.06,.86-1.67,1.99-1.83,3.39h.15c.18-1.02,.58-1.66,1.2-1.92-.06,.22-.09,.43-.09,.63v8.25c0,.4-.11,.72-.32,.94-.21,.23-.5,.35-.88,.35s-.67-.11-.88-.35c-.21-.23-.32-.54-.32-.94V7.94c0-.4,.11-.71,.32-.94s.5-.35,.88-.35,.67,.12,.88,.35,.32,.54,.32,.91v.81h.18c1.14-1.52,2.7-2.28,4.68-2.28Z"/><path class="cls-2" d="M254.97,6.14c-.4-.36-.75-.65-1.06-.86-.31-.21-.88-.44-1.71-.69-.83-.25-1.78-.38-2.83-.38-2.68,0-4.51,.71-5.49,2.13l.09,.09c.58-.72,1.32-1.04,2.22-.96-.96,.66-1.71,1.55-2.26,2.67-.55,1.12-.83,2.36-.83,3.72,0,2.22,.67,4.05,2.03,5.49,1.35,1.44,3.08,2.16,5.17,2.16,.8,0,1.56-.14,2.28-.41,.72-.27,1.23-.51,1.53-.73,.3-.22,.68-.53,1.14-.93,.6-.56,1.18-.57,1.74-.03,.54,.52,.55,1.11,.03,1.77-.56,.66-1.46,1.27-2.71,1.83-1.25,.56-2.63,.84-4.16,.84-2.72,0-4.99-.95-6.82-2.86-1.83-1.91-2.75-4.29-2.75-7.16s.92-5.21,2.75-7.11c1.83-1.9,4.11-2.85,6.85-2.85,1.44,0,2.75,.25,3.95,.75,1.19,.5,2.06,1.07,2.62,1.71,.5,.58,.48,1.16-.06,1.74-.56,.56-1.13,.58-1.71,.06Z"/><path class="cls-2" d="M275.19,2.21c.76,.3,.98,.85,.66,1.65l-6.69,16.98c-.26,.6-.66,.9-1.2,.9s-.97-.3-1.23-.9l-6.69-16.98c-.32-.8-.1-1.35,.66-1.65,.34-.16,.67-.17,.99-.04,.32,.13,.54,.39,.66,.76l6.06,16.11,.09-.24c-.28-.88-.26-1.77,.06-2.67l4.98-13.2c.12-.38,.34-.63,.66-.76,.32-.13,.65-.11,.99,.04Z"/></g></g></svg>