<?xml version="1.0" encoding="UTF-8"?><svg id="Calque_2" xmlns="http://www.w3.org/2000/svg" viewBox="0 0 185.31 25.65"><defs><style>.cls-1{fill:#fff;}.cls-2{fill:#438dcc;}</style></defs><g id="Calque_1-2"><g><path class="cls-2" d="M13.86,19.5c.14,.34,.12,.67-.06,.97-.18,.31-.44,.51-.78,.59-.3,.06-.6,0-.89-.17s-.51-.42-.65-.77l-1.8-4.53c-.48-1.16-1.03-1.99-1.65-2.49-.62-.5-1.57-.75-2.85-.75H1.2v.12c.3,0,.59,.12,.86,.36,.27,.24,.4,.55,.4,.93v6c0,.4-.11,.72-.33,.96-.22,.24-.52,.36-.9,.36s-.68-.12-.9-.36c-.22-.24-.33-.56-.33-.96V2.85c0-.4,.11-.72,.33-.96,.22-.24,.52-.36,.9-.36s.68,.12,.9,.36c.22,.24,.33,.56,.33,.96v7.2h2.25c1.12,0,1.94-.23,2.48-.71,.53-.47,1.03-1.29,1.51-2.48l1.77-4.38c.32-.8,.83-1.1,1.53-.9,.36,.1,.61,.29,.77,.57,.15,.28,.15,.61,.01,.99l-1.8,4.44c-.46,1.22-.96,2.06-1.5,2.52-.42,.42-1.02,.54-1.8,.36l-.18,.12c2.06,.44,3.56,1.81,4.5,4.11l1.86,4.8Z"/><path class="cls-2" d="M28.77,6.44c.22-.23,.52-.35,.9-.35s.68,.12,.89,.35,.31,.54,.31,.94v11.73c0,2.06-.69,3.66-2.07,4.81-1.38,1.15-3.02,1.73-4.92,1.73-1.6,0-3.03-.26-4.29-.78-.7-.24-.92-.73-.66-1.47,.24-.74,.71-.98,1.41-.72,1.18,.48,2.3,.72,3.36,.72,1.36,0,2.51-.41,3.46-1.21,.95-.81,1.43-2.06,1.43-3.74v-.54h-.15c-.34,.62-.94,1.19-1.78,1.7-.85,.51-1.9,.76-3.14,.76-1.76,0-3.22-.55-4.38-1.65-1.16-1.1-1.74-2.79-1.74-5.07V7.38c0-.4,.11-.71,.32-.94s.5-.35,.88-.35,.67,.12,.89,.35c.21,.23,.31,.54,.31,.94v6.03c0,2.4,.47,4.08,1.41,5.04v-.15c-.12-.24-.15-.44-.1-.58s.15-.25,.31-.31c.64,.48,1.54,.72,2.7,.72,1.38-.02,2.44-.38,3.19-1.06s1.12-1.54,1.12-2.56V7.38c0-.4,.11-.71,.33-.94Z"/><path class="cls-2" d="M36.21,.03c.36,0,.65,.11,.87,.33,.22,.22,.33,.5,.33,.84v.03c0,.28-.13,.53-.4,.75s-.54,.33-.83,.33v.12h1.23V19.8c0,.4-.1,.72-.31,.94-.21,.23-.51,.35-.88,.35s-.68-.11-.89-.35c-.21-.23-.31-.54-.31-.94V1.32c0-.4,.1-.71,.31-.94s.5-.35,.89-.35Z"/><path class="cls-2" d="M44.11,2.64c-.29,.28-.67,.42-1.12,.42s-.83-.15-1.11-.44c-.28-.29-.42-.65-.42-1.1s.14-.8,.42-1.09c.28-.29,.65-.44,1.11-.44s.83,.14,1.12,.42c.29,.28,.43,.65,.43,1.11s-.15,.83-.43,1.11Zm-2,3.81c.22-.24,.51-.36,.87-.36s.65,.12,.88,.35c.23,.23,.35,.5,.35,.82v.03c0,.28-.14,.53-.42,.75s-.56,.33-.84,.33v.12h1.26v11.31c0,.4-.11,.72-.33,.94-.22,.23-.52,.35-.9,.35s-.65-.12-.87-.36c-.22-.24-.33-.55-.33-.93V7.38c0-.38,.11-.69,.33-.93Z"/><path class="cls-2" d="M55.65,5.88c2.02,0,3.72,.61,5.11,1.83,1.39,1.22,2.08,2.88,2.08,4.98v7.08c0,.4-.1,.72-.31,.96-.21,.24-.51,.36-.88,.36s-.68-.12-.9-.36c-.22-.24-.33-.56-.33-.96v-1.05h-.15c-.94,1.72-2.61,2.58-5.01,2.58-2.12,0-3.9-.72-5.33-2.17-1.43-1.45-2.15-3.23-2.15-5.35,0-2.3,.71-4.19,2.15-5.67,1.43-1.48,3.33-2.22,5.72-2.22Zm-.12,13.14c1.54,0,2.74-.48,3.6-1.46,.86-.97,1.29-2.33,1.29-4.06v-.48c0-1.56-.46-2.76-1.38-3.6s-2.28-1.26-4.08-1.26c-1,0-1.97,.16-2.9,.48-.93,.32-1.63,.81-2.09,1.47l.12,.09c.28-.36,.63-.63,1.06-.82s.83-.27,1.19-.23c-1.4,1-2.1,2.49-2.1,4.47,0,1.6,.48,2.9,1.44,3.9,.96,1,2.24,1.5,3.84,1.5Z"/><path class="cls-2" d="M74.13,5.88c1.74,0,3.16,.49,4.26,1.47,1.1,.98,1.65,2.45,1.65,4.41v8.04c0,.4-.1,.72-.31,.94-.21,.23-.51,.35-.89,.35s-.67-.11-.88-.35c-.21-.23-.32-.54-.32-.94v-7.68c0-1.44-.33-2.46-1-3.06-.67-.6-1.62-.9-2.86-.9-1.56,0-2.87,.43-3.93,1.29-1.06,.86-1.67,1.99-1.83,3.39h.15c.18-1.02,.58-1.66,1.2-1.92-.06,.22-.09,.43-.09,.63v8.25c0,.4-.1,.72-.31,.94-.21,.23-.51,.35-.89,.35s-.67-.11-.88-.35c-.21-.23-.32-.54-.32-.94V7.38c0-.4,.11-.71,.32-.94s.5-.35,.88-.35,.67,.12,.89,.35c.21,.23,.31,.54,.31,.91v.81h.18c1.14-1.52,2.7-2.28,4.68-2.28Z"/><path class="cls-1" d="M103.74,10.62c.84,.4,1.52,1.05,2.05,1.94,.53,.89,.79,1.85,.79,2.87,0,1.7-.49,3.07-1.48,4.11-.99,1.04-2.37,1.56-4.12,1.56h-6.93c-.38,0-.67-.12-.88-.36-.21-.24-.31-.56-.31-.96V2.85c0-.4,.11-.72,.33-.96,.22-.24,.53-.36,.93-.36h5.85c1.66,0,3,.49,4,1.46,1.01,.97,1.52,2.27,1.52,3.88,0,.7-.16,1.4-.46,2.09-.31,.69-.73,1.24-1.27,1.66Zm-.69-3.75c0-.98-.3-1.72-.91-2.23-.61-.51-1.46-.77-2.54-.77h-5.55v.12c.28,0,.56,.12,.84,.36,.28,.24,.42,.55,.42,.93v4.68h4.95c.84,0,1.51-.29,2.02-.87,.51-.58,.76-1.32,.76-2.22Zm1.11,8.55c0-.96-.27-1.73-.79-2.33-.53-.59-1.23-.88-2.08-.88h-7.23v.15c.3,0,.59,.12,.86,.36,.27,.24,.4,.55,.4,.93v5.1h5.34c1.16,0,2.04-.29,2.62-.87s.89-1.4,.89-2.46Z"/><path class="cls-1" d="M117.45,5.88c2.02,0,3.72,.61,5.11,1.83,1.39,1.22,2.08,2.88,2.08,4.98v7.08c0,.4-.1,.72-.31,.96-.21,.24-.51,.36-.88,.36s-.68-.12-.9-.36c-.22-.24-.33-.56-.33-.96v-1.05h-.15c-.94,1.72-2.61,2.58-5.01,2.58-2.12,0-3.9-.72-5.33-2.17-1.43-1.45-2.15-3.23-2.15-5.35,0-2.3,.71-4.19,2.15-5.67,1.43-1.48,3.33-2.22,5.72-2.22Zm-.12,13.14c1.54,0,2.74-.48,3.6-1.46,.86-.97,1.29-2.33,1.29-4.06v-.48c0-1.56-.46-2.76-1.38-3.6s-2.28-1.26-4.08-1.26c-1,0-1.97,.16-2.9,.48-.93,.32-1.63,.81-2.09,1.47l.12,.09c.28-.36,.63-.63,1.06-.82s.83-.27,1.19-.23c-1.4,1-2.1,2.49-2.1,4.47,0,1.6,.48,2.9,1.44,3.9,.96,1,2.24,1.5,3.84,1.5Z"/><path class="cls-1" d="M136.83,6.18c.78,.18,1.09,.65,.93,1.41-.16,.74-.64,1.03-1.44,.87-.46-.18-.87-.27-1.23-.27-1.24,0-2.22,.57-2.94,1.69-.72,1.13-1.08,2.71-1.08,4.75v5.16c0,.4-.1,.72-.31,.94-.21,.23-.51,.35-.89,.35s-.67-.11-.88-.35c-.21-.23-.32-.54-.32-.94V7.38c0-.4,.11-.71,.32-.94s.5-.35,.88-.35,.67,.12,.89,.35c.21,.23,.31,.54,.31,.94v2.37l.12-.06c.14-1.2,.59-2.13,1.34-2.81,.75-.67,1.65-1,2.71-1,.4,0,.93,.1,1.59,.3Z"/><path class="cls-1" d="M152.07,.39c.22-.24,.52-.36,.9-.36s.67,.12,.88,.36c.21,.24,.31,.56,.31,.96V14.28c0,2.02-.69,3.7-2.08,5.02-1.39,1.33-3.17,2-5.32,2s-4.08-.72-5.51-2.17c-1.43-1.45-2.15-3.29-2.15-5.51s.73-4.11,2.19-5.56c1.46-1.45,3.26-2.17,5.4-2.17,1.72,0,3.04,.55,3.96,1.65,.64,.68,.96,1.37,.96,2.07l.12,.21V1.35c0-.4,.11-.72,.33-.96Zm-.33,13.65v-.45c0-1.7-.46-3.03-1.38-4-.92-.97-2.28-1.46-4.08-1.46-1,0-1.97,.17-2.9,.5-.93,.33-1.63,.82-2.09,1.48l.12,.09c.28-.36,.63-.63,1.06-.82s.83-.27,1.19-.23c-1.4,1.02-2.1,2.49-2.1,4.41,0,1.54,.48,2.83,1.46,3.88s2.25,1.58,3.83,1.58c1.48,0,2.66-.46,3.56-1.37,.89-.91,1.33-2.11,1.33-3.61Z"/><path class="cls-1" d="M160.75,2.64c-.29,.28-.67,.42-1.12,.42s-.83-.15-1.11-.44c-.28-.29-.42-.65-.42-1.1s.14-.8,.42-1.09c.28-.29,.65-.44,1.11-.44s.83,.14,1.12,.42c.29,.28,.43,.65,.43,1.11s-.15,.83-.43,1.11Zm-2,3.81c.22-.24,.51-.36,.87-.36s.65,.12,.88,.35c.23,.23,.35,.5,.35,.82v.03c0,.28-.14,.53-.42,.75s-.56,.33-.84,.33v.12h1.26v11.31c0,.4-.11,.72-.33,.94-.22,.23-.52,.35-.9,.35s-.65-.12-.87-.36c-.22-.24-.33-.55-.33-.93V7.38c0-.38,.11-.69,.33-.93Z"/><path class="cls-1" d="M172.38,5.88c1.74,0,3.16,.49,4.26,1.47,1.1,.98,1.65,2.45,1.65,4.41v8.04c0,.4-.1,.72-.31,.94-.21,.23-.51,.35-.89,.35s-.67-.11-.88-.35c-.21-.23-.32-.54-.32-.94v-7.68c0-1.44-.33-2.46-1-3.06-.67-.6-1.62-.9-2.86-.9-1.56,0-2.87,.43-3.93,1.29-1.06,.86-1.67,1.99-1.83,3.39h.15c.18-1.02,.58-1.66,1.2-1.92-.06,.22-.09,.43-.09,.63v8.25c0,.4-.1,.72-.31,.94-.21,.23-.51,.35-.89,.35s-.67-.11-.88-.35c-.21-.23-.32-.54-.32-.94V7.38c0-.4,.11-.71,.32-.94s.5-.35,.88-.35,.67,.12,.89,.35c.21,.23,.31,.54,.31,.91v.81h.18c1.14-1.52,2.7-2.28,4.68-2.28Z"/><path class="cls-1" d="M184.87,2.64c-.29,.28-.67,.42-1.12,.42s-.83-.15-1.11-.44c-.28-.29-.42-.65-.42-1.1s.14-.8,.42-1.09c.28-.29,.65-.44,1.11-.44s.83,.14,1.12,.42c.29,.28,.43,.65,.43,1.11s-.15,.83-.43,1.11Zm-2,3.81c.22-.24,.51-.36,.87-.36s.65,.12,.88,.35c.23,.23,.35,.5,.35,.82v.03c0,.28-.14,.53-.42,.75s-.56,.33-.84,.33v.12h1.26v11.31c0,.4-.11,.72-.33,.94-.22,.23-.52,.35-.9,.35s-.65-.12-.87-.36c-.22-.24-.33-.55-.33-.93V7.38c0-.38,.11-.69,.33-.93Z"/></g></g></svg>